<mxfile host="65bd71144e">
    <diagram id="EO44Iq28wEs1gpJO-7z-" name="Page-1">
        <mxGraphModel dx="797" dy="441" grid="1" gridSize="10" guides="1" tooltips="1" connect="1" arrows="1" fold="1" page="1" pageScale="1" pageWidth="827" pageHeight="1169" math="0" shadow="0">
            <root>
                <mxCell id="0"/>
                <mxCell id="1" parent="0"/>
                <mxCell id="15" style="edgeStyle=none;html=1;startArrow=none;startFill=0;endArrow=classic;endFill=1;" parent="1" source="2" target="3" edge="1">
                    <mxGeometry relative="1" as="geometry"/>
                </mxCell>
                <mxCell id="23" style="edgeStyle=none;html=1;startArrow=none;startFill=0;endArrow=classic;endFill=1;" parent="1" source="2" target="17" edge="1">
                    <mxGeometry relative="1" as="geometry"/>
                </mxCell>
                <mxCell id="24" style="edgeStyle=none;html=1;startArrow=none;startFill=0;endArrow=classic;endFill=1;" parent="1" source="2" target="18" edge="1">
                    <mxGeometry relative="1" as="geometry"/>
                </mxCell>
                <mxCell id="2" value="RegisterController" style="rounded=0;whiteSpace=wrap;html=1;" parent="1" vertex="1">
                    <mxGeometry x="120" y="120" width="120" height="60" as="geometry"/>
                </mxCell>
                <mxCell id="10" style="edgeStyle=none;html=1;startArrow=none;startFill=0;endArrow=classic;endFill=1;" parent="1" source="3" target="7" edge="1">
                    <mxGeometry relative="1" as="geometry"/>
                </mxCell>
                <mxCell id="11" style="edgeStyle=none;html=1;startArrow=none;startFill=0;endArrow=classic;endFill=1;" parent="1" source="3" target="4" edge="1">
                    <mxGeometry relative="1" as="geometry"/>
                </mxCell>
                <mxCell id="3" value="RegisterUsecase" style="rounded=0;whiteSpace=wrap;html=1;" parent="1" vertex="1">
                    <mxGeometry x="380" y="120" width="120" height="60" as="geometry"/>
                </mxCell>
                <mxCell id="6" style="edgeStyle=none;html=1;endArrow=none;endFill=0;startArrow=diamond;startFill=1;" parent="1" source="4" target="5" edge="1">
                    <mxGeometry relative="1" as="geometry"/>
                </mxCell>
                <mxCell id="4" value="Message" style="rounded=0;whiteSpace=wrap;html=1;" parent="1" vertex="1">
                    <mxGeometry x="600" y="120" width="120" height="60" as="geometry"/>
                </mxCell>
                <mxCell id="5" value="ID" style="rounded=0;whiteSpace=wrap;html=1;" parent="1" vertex="1">
                    <mxGeometry x="600" y="220" width="120" height="60" as="geometry"/>
                </mxCell>
                <mxCell id="8" style="edgeStyle=none;html=1;startArrow=none;startFill=0;endArrow=classic;endFill=1;" parent="1" source="7" target="4" edge="1">
                    <mxGeometry relative="1" as="geometry"/>
                </mxCell>
                <mxCell id="7" value="IMessageRepository" style="rounded=0;whiteSpace=wrap;html=1;" parent="1" vertex="1">
                    <mxGeometry x="380" y="240" width="120" height="60" as="geometry"/>
                </mxCell>
                <mxCell id="16" style="edgeStyle=none;html=1;startArrow=none;startFill=0;endArrow=classic;endFill=1;" parent="1" edge="1">
                    <mxGeometry relative="1" as="geometry">
                        <mxPoint x="360" y="270" as="sourcePoint"/>
                    </mxGeometry>
                </mxCell>
                <mxCell id="25" style="edgeStyle=none;html=1;startArrow=none;startFill=0;endArrow=classic;endFill=1;" parent="1" edge="1">
                    <mxGeometry relative="1" as="geometry">
                        <mxPoint x="294" y="300" as="sourcePoint"/>
                    </mxGeometry>
                </mxCell>
                <mxCell id="17" value="RegisterRequest" style="rounded=0;whiteSpace=wrap;html=1;" parent="1" vertex="1">
                    <mxGeometry x="40" y="240" width="120" height="60" as="geometry"/>
                </mxCell>
                <mxCell id="18" value="RegisterResponse" style="rounded=0;whiteSpace=wrap;html=1;" parent="1" vertex="1">
                    <mxGeometry x="200" y="240" width="120" height="60" as="geometry"/>
                </mxCell>
                <mxCell id="27" style="edgeStyle=none;html=1;startArrow=none;startFill=0;endArrow=block;endFill=0;" parent="1" source="26" target="7" edge="1">
                    <mxGeometry relative="1" as="geometry"/>
                </mxCell>
                <mxCell id="29" style="edgeStyle=none;html=1;startArrow=none;startFill=0;endArrow=classic;endFill=1;" parent="1" source="26" target="28" edge="1">
                    <mxGeometry relative="1" as="geometry"/>
                </mxCell>
                <mxCell id="26" value="SQLiteMessage&lt;br&gt;Repository" style="rounded=0;whiteSpace=wrap;html=1;" parent="1" vertex="1">
                    <mxGeometry x="380" y="400" width="120" height="60" as="geometry"/>
                </mxCell>
                <mxCell id="28" value="sqlite3" style="rounded=0;whiteSpace=wrap;html=1;" parent="1" vertex="1">
                    <mxGeometry x="540" y="400" width="120" height="60" as="geometry"/>
                </mxCell>
                <mxCell id="30" value="" style="endArrow=none;html=1;" parent="1" edge="1">
                    <mxGeometry width="50" height="50" relative="1" as="geometry">
                        <mxPoint y="360" as="sourcePoint"/>
                        <mxPoint x="800" y="360" as="targetPoint"/>
                    </mxGeometry>
                </mxCell>
                <mxCell id="31" value="Domain Layer" style="text;html=1;strokeColor=none;fillColor=none;align=center;verticalAlign=middle;whiteSpace=wrap;rounded=0;" parent="1" vertex="1">
                    <mxGeometry x="600" y="20" width="120" height="40" as="geometry"/>
                </mxCell>
                <mxCell id="32" value="" style="endArrow=none;html=1;" parent="1" edge="1">
                    <mxGeometry width="50" height="50" relative="1" as="geometry">
                        <mxPoint x="340" as="sourcePoint"/>
                        <mxPoint x="340" y="360" as="targetPoint"/>
                    </mxGeometry>
                </mxCell>
                <mxCell id="33" value="" style="endArrow=none;html=1;" parent="1" edge="1">
                    <mxGeometry width="50" height="50" relative="1" as="geometry">
                        <mxPoint x="560" as="sourcePoint"/>
                        <mxPoint x="560" y="320" as="targetPoint"/>
                    </mxGeometry>
                </mxCell>
                <mxCell id="34" value="" style="endArrow=none;html=1;" parent="1" edge="1">
                    <mxGeometry width="50" height="50" relative="1" as="geometry">
                        <mxPoint x="800" y="320" as="sourcePoint"/>
                        <mxPoint x="560" y="320" as="targetPoint"/>
                    </mxGeometry>
                </mxCell>
                <mxCell id="35" value="Usecase Layer" style="text;html=1;strokeColor=none;fillColor=none;align=center;verticalAlign=middle;whiteSpace=wrap;rounded=0;" parent="1" vertex="1">
                    <mxGeometry x="360" y="20" width="120" height="40" as="geometry"/>
                </mxCell>
                <mxCell id="36" value="Presentation Layer" style="text;html=1;strokeColor=none;fillColor=none;align=center;verticalAlign=middle;whiteSpace=wrap;rounded=0;" parent="1" vertex="1">
                    <mxGeometry x="120" y="20" width="120" height="40" as="geometry"/>
                </mxCell>
                <mxCell id="37" value="Infrastructure Layer" style="text;html=1;strokeColor=none;fillColor=none;align=center;verticalAlign=middle;whiteSpace=wrap;rounded=0;" parent="1" vertex="1">
                    <mxGeometry x="120" y="400" width="120" height="40" as="geometry"/>
                </mxCell>
                <mxCell id="38" value="&amp;lt;DS&amp;gt;" style="text;html=1;strokeColor=none;fillColor=none;align=center;verticalAlign=middle;whiteSpace=wrap;rounded=0;" parent="1" vertex="1">
                    <mxGeometry x="120" y="240" width="40" height="20" as="geometry"/>
                </mxCell>
                <mxCell id="39" value="&amp;lt;DS&amp;gt;" style="text;html=1;strokeColor=none;fillColor=none;align=center;verticalAlign=middle;whiteSpace=wrap;rounded=0;" parent="1" vertex="1">
                    <mxGeometry x="280" y="240" width="40" height="20" as="geometry"/>
                </mxCell>
                <mxCell id="40" value="&amp;lt;I&amp;gt;" style="text;html=1;strokeColor=none;fillColor=none;align=center;verticalAlign=middle;whiteSpace=wrap;rounded=0;" parent="1" vertex="1">
                    <mxGeometry x="460" y="240" width="40" height="20" as="geometry"/>
                </mxCell>
            </root>
        </mxGraphModel>
    </diagram>
</mxfile>
